<?xml version="1.0" encoding="UTF-8" standalone="no"?>
<!-- Created with Inkscape (http://www.inkscape.org/) -->

<svg
   version="1.1"
   id="svg1"
   width="484.6763"
   height="407.17157"
   viewBox="0 0 484.6763 407.17156"
   sodipodi:docname="192a.svg"
   inkscape:version="1.3.2 (091e20ef0f, 2023-11-25)"
   xmlns:inkscape="http://www.inkscape.org/namespaces/inkscape"
   xmlns:sodipodi="http://sodipodi.sourceforge.net/DTD/sodipodi-0.dtd"
   xmlns="http://www.w3.org/2000/svg"
   xmlns:svg="http://www.w3.org/2000/svg">
  <defs
     id="defs1" />
  <sodipodi:namedview
     id="namedview1"
     pagecolor="#ffffff"
     bordercolor="#000000"
     borderopacity="0.25"
     inkscape:showpageshadow="2"
     inkscape:pageopacity="0.0"
     inkscape:pagecheckerboard="0"
     inkscape:deskcolor="#d1d1d1"
     showgrid="false"
     inkscape:zoom="0.84852814"
     inkscape:cx="161.45605"
     inkscape:cy="269.28983"
     inkscape:window-width="1920"
     inkscape:window-height="1011"
     inkscape:window-x="0"
     inkscape:window-y="0"
     inkscape:window-maximized="1"
     inkscape:current-layer="layer1" />
  <g
     inkscape:groupmode="layer"
     id="layer1"
     inkscape:label="Layer 1"
     transform="translate(93.92718,210.45389)">
    <path
       style="fill:#000000;stroke-width:3.67749"
       d="m 144.19151,191.28419 c -1.75137,-2.98848 -3.46008,-7.48973 -3.79716,-10.00278 -0.33708,-2.51305 -0.96027,-4.56916 -1.3849,-4.56916 -0.42462,0 -5.25331,1.84841 -10.73042,4.1076 -9.14032,3.77017 -14.12315,7.42118 -15.56666,11.40596 -0.93975,2.59414 -4.93101,-0.60293 -5.36898,-4.30068 -0.56295,-4.75297 0.57351,-8.20216 4.07267,-12.36067 l 3.09887,-3.68282 -2.80433,0.64084 c -1.54238,0.35231 -6.89196,1.1212 -11.88798,1.70834 -9.641915,1.13315 -15.547596,3.88133 -19.70876,9.17137 -3.545197,4.50702 -5.923085,2.85185 -5.923085,-4.12284 0,-4.50661 0.755679,-6.78754 3.507186,-10.58591 3.803913,-5.25112 7.612563,-7.62884 16.943402,-10.57756 5.176507,-1.63586 5.578727,-1.96304 2.849345,-2.31789 -1.747896,-0.22727 -4.228496,0.14894 -5.512428,0.83616 -3.557002,1.90365 -9.68051,1.52527 -28.967081,-1.78999 -15.861202,-2.72641 -18.487634,-2.89245 -25.889527,-1.63644 -4.530669,0.76878 -10.796493,2.66489 -13.924055,4.21359 -6.971053,3.45188 -9.023486,3.5394 -9.023486,0.38481 0,-3.94374 2.143249,-6.82825 6.862344,-9.23576 7.574439,-3.86419 24.967356,-8.33881 32.413081,-8.33881 3.858391,0 10.500765,-0.59149 14.760838,-1.31445 7.068116,-1.19952 8.268473,-1.84833 13.724141,-7.41811 8.354454,-8.5292 11.934631,-16.48135 13.423774,-29.81636 0.669124,-5.99182 0.887811,-12.950303 0.485955,-15.463309 l -0.730622,-4.569097 -5.921339,3.680903 c -4.90217,3.047358 -7.386035,3.754868 -14.4313,4.110639 C 69.717962,89.696432 65.212811,89.315849 63.702601,88.50762 61.552612,87.356982 60.622427,87.591183 57.753062,90.005595 53.99793,93.165328 45.697443,94.900489 40.48178,93.616034 27.054344,90.309268 23.180532,85.507499 23.80326,72.94223 24.224343,64.445738 22.842887,63.241434 13.047624,63.565843 5.273406,63.823305 -2.6519889,60.032397 -3.265711,55.762754 c -0.3020322,-2.101182 -0.9205564,-2.481195 -3.1342103,-1.925603 -1.8954041,0.475716 -3.5258924,-0.07576 -5.2135007,-1.763379 -1.350565,-1.350566 -2.920291,-2.45557 -3.488275,-2.45557 -0.567989,0 -1.691947,-0.794338 -2.497689,-1.765195 -0.805738,-0.970858 -2.713318,-1.765196 -4.239065,-1.765196 -5.070162,0 -11.9983,-3.625361 -14.79552,-7.742212 -1.789949,-2.634388 -3.34659,-3.783192 -4.501351,-3.322016 -5.511862,2.201264 -10.177228,1.748032 -16.475154,-1.600539 -7.580273,-4.03039 -10.586622,-8.81821 -10.589345,-16.864263 -0.0021,-6.384881 4.186239,-15.2149572 8.040679,-16.95153743 2.304307,-1.03818107 2.524052,-1.78640747 1.900843,-6.47238277 -1.033349,-7.7698658 -1.136341,-7.9164328 -5.148946,-7.3275088 -2.566435,0.376671 -4.878988,-0.295273 -7.733925,-2.247208 -5.445641,-3.723215 -7.243097,-8.200386 -5.665343,-14.111452 1.214656,-4.55072 1.210034,-4.559862 -2.305098,-4.559862 -11.585634,0 -18.507469,-15.066059 -12.747972,-27.747221 3.060561,-6.738692 7.493232,-9.910274 13.850795,-9.910274 3.146065,0 5.327007,-0.576524 5.564679,-1.471004 0.214971,-0.809048 1.012311,-4.067354 1.771861,-7.240676 1.596955,-6.67192 7.315881,-14.518715 11.31268,-15.521853 1.515575,-0.380389 3.042063,-1.438155 3.392201,-2.350599 0.350134,-0.912443 1.323275,-1.658993 2.162527,-1.658993 0.839253,0 2.449152,-2.59945 3.577557,-5.77653 2.263532,-6.37313 8.273337,-13.11694 13.687953,-15.35976 2.304513,-0.95455 3.749366,-2.56501 4.218797,-4.7023 1.463377,-6.66272 10.210327,-11.81891 20.049569,-11.81891 4.4682168,0 5.1334639,-0.37722 6.5051338,-3.68872 1.0387807,-2.50785 3.0928166,-4.38096 6.4161753,-5.85104 4.4381062,-1.96318 4.8398712,-2.49196 4.3628575,-5.74205 -0.8698229,-5.92649 1.8084967,-10.42028 8.1153154,-13.61618 6.256274,-3.17031 10.011297,-3.56568 14.488788,-1.52561 2.568083,1.1701 3.251656,0.99314 5.13156,-1.32846 2.716377,-3.35457 11.34235,-4.39738 20.366215,-2.46211 6.237277,1.33766 6.360483,1.31038 8.699563,-1.92582 8.157147,-11.28571 18.890936,-16.52342 31.220866,-15.23469 3.658043,0.38235 7.40154,0.98236 8.31889,1.33335 1.09749,0.41993 2.61497,-1.14959 4.43723,-4.58942 3.40549,-6.42843 9.21356,-9.19188 20.04238,-9.53604 5.72872,-0.18207 7.7838,-0.72207 8.65195,-2.27337 1.62448,-2.90279 8.18209,-5.34444 14.35368,-5.34444 6.09314,0 13.29176,3.02459 14.22933,5.97864 0.51012,1.60723 1.58175,1.89771 5.20707,1.41145 10.14718,-1.36102 21.6419,3.88384 24.70178,11.27104 1.36458,3.29437 1.58001,3.37178 6.33083,2.27464 5.97227,-1.37923 18.78907,-0.26861 23.01624,1.99443 3.61866,1.93729 10.33253,8.20437 13.67545,12.76539 2.16491,2.95377 2.68315,3.11397 6.4646,1.99816 8.45693,-2.49541 23.54372,-0.29486 23.54372,3.43409 0,1.57484 4.32905,1.62392 5.29559,0.0601 1.24965,-2.02203 6.31624,-1.29555 12.37432,1.77429 7.19953,3.64828 9.82232,7.37441 9.16342,13.01833 -0.45578,3.90395 -0.15114,4.39271 4.08584,6.55423 2.51809,1.28463 5.46152,3.88803 6.54093,5.78533 1.68962,2.96987 2.66347,3.45069 7.00175,3.4571 9.19436,0.0136 18.28071,5.4337 19.66351,11.72953 0.46723,2.12728 2.06675,3.84053 4.80449,5.14607 2.25724,1.0764 4.4092,2.75221 4.7821,3.72404 0.37293,0.97181 1.33246,1.76694 2.13232,1.76694 1.41888,0 5.69364,7.54372 7.0639,12.46575 0.37714,1.35463 3.24485,4.12125 6.37269,6.148033 6.99738,4.534147 11.9133,11.717428 12.93803,18.905384 l 0.77463,5.433914 5.56162,0.640687 c 10.04658,1.157346 16.18533,8.540032 16.18533,19.46509 0,9.036564 -1.85047,13.03886 -7.58132,16.397365 -2.73999,1.605751 -6.04907,2.919549 -7.35348,2.919549 -2.1296,0 -2.31528,0.587107 -1.819,5.751752 0.50871,5.294445 0.22286,6.111774 -3.59698,10.279831 -3.58346,3.91019 -4.80649,4.510853 -8.96301,4.401866 -4.35131,-0.114118 -4.81332,0.149123 -4.81332,2.742298 0,1.5776839 -0.57633,3.9453795 -1.28071,5.2615537 -1.08222,2.022123 -0.69046,2.9677457 2.52749,6.10082022 4.92217,4.79236528 6.9908,9.86021808 6.9908,17.12653408 0,8.365885 -1.55995,11.423409 -7.918,15.519529 -5.14054,3.311756 -6.25192,3.569847 -13.14813,3.053405 -7.24392,-0.542481 -7.64819,-0.427176 -10.53623,3.005051 -3.19419,3.796092 -9.02559,6.779544 -13.25114,6.779544 -1.41039,0 -4.82626,1.853455 -7.59081,4.118789 -2.76456,2.265334 -6.30415,4.118789 -7.86576,4.118789 -1.78512,0 -3.39516,1.038736 -4.33664,2.797834 -2.33435,4.36183 -11.8107,8.279258 -17.98159,7.433443 -7.64216,-1.047474 -8.57345,0.04159 -8.57345,10.025724 0,10.420966 -2.03096,13.788685 -10.45392,17.334735 -9.14851,3.851505 -18.09854,2.925958 -23.85637,-2.467049 -2.03765,-1.908536 -3.00646,-2.12465 -4.92403,-1.098406 -3.54108,1.895127 -17.24724,1.55695 -22.29112,-0.550002 -2.40636,-1.00519 -5.90257,-3.255815 -7.76933,-5.001387 l -3.39414,-3.173761 0.72146,14.121561 c 0.85884,16.810574 2.77306,23.528514 9.37098,32.887334 6.68134,9.47717 11.81853,11.93916 28.20413,13.5168 27.93658,2.68983 44.39512,9.5785 44.39512,18.58151 0,3.30952 -1.78171,3.37877 -6.88493,0.26736 -5.09593,-3.10682 -15.51757,-5.74016 -23.71181,-5.99156 -3.55982,-0.10921 -13.60249,0.99918 -22.31708,2.46311 -14.81828,2.4893 -19.7414,2.5994 -30.05039,0.67206 -4.2537,-0.79525 -1.85659,0.48433 6.55719,3.50028 11.81415,4.23477 19.10474,15.68504 15.67605,24.62006 -1.07207,2.79378 -2.36428,2.31325 -7.44685,-2.76933 -5.12241,-5.12242 -9.63591,-6.7667 -21.72267,-7.91364 -5.73502,-0.54423 -8.65743,-1.4056 -9.97012,-2.93871 -1.02135,-1.19287 -2.51972,-2.16884 -3.3297,-2.16884 -0.80998,0 0.86363,2.33635 3.71913,5.19184 5.71922,5.7192 7.72924,11.79938 5.51051,16.66896 -1.75716,3.85651 -4.43794,3.59049 -6.63518,-0.65853 -1.98375,-3.83618 -5.79455,-6.16097 -15.66639,-9.55739 -3.54579,-1.21989 -7.16647,-2.81522 -8.04596,-3.54514 -1.28445,-1.06599 -1.59927,-0.66202 -1.60001,2.05314 -0.001,4.50185 -6.50861,18.09024 -8.66326,18.09024 -0.93684,0 -3.13628,-2.44513 -4.88765,-5.4336 z m 8.62494,-8.98216 c 1.26664,-3.398 2.50228,-7.23119 2.74586,-8.51824 0.24356,-1.28705 1.37432,-2.51949 2.51275,-2.7387 2.48569,-0.4787 21.14045,8.71911 25.10381,12.37755 2.38182,2.19858 2.8076,2.29229 2.8076,0.61792 0,-1.08551 -3.4278,-5.42908 -7.61732,-9.65238 -6.27644,-6.32701 -7.48937,-8.16704 -6.8905,-10.45282 0.62808,-2.39721 1.26015,-2.68758 4.65186,-2.13721 2.15877,0.35046 5.65665,1.93281 7.77308,3.51664 2.689,2.01228 7.21546,3.47522 15.02765,4.85693 8.47751,1.49939 12.38838,2.83082 16.18095,5.50881 6.18108,4.36455 6.43405,2.88492 0.5884,-3.44155 -3.34791,-3.62324 -6.96919,-5.76086 -15.00417,-8.85686 -10.43804,-4.02193 -10.59645,-4.14233 -10.95696,-8.32963 -0.47376,-5.50262 1.53988,-6.28483 9.62919,-3.74041 5.49783,1.72927 8.1241,1.79896 22.60294,0.59976 20.56778,-1.70348 31.636,-1.91295 42.86027,-0.81107 7.56219,0.74238 8.52819,0.63742 6.74641,-0.73288 -1.14374,-0.87962 -5.38022,-1.95275 -9.41437,-2.38475 -33.57737,-3.59551 -45.66746,-6.93957 -51.49479,-14.24308 -8.77429,-10.99701 -14.09146,-26.01038 -14.09146,-39.788076 0,-7.872654 -0.083,-8.103386 -2.6478,-7.356136 -6.63113,1.932022 -10.12429,2.022293 -13.32668,0.344397 -3.27295,-1.714871 -3.52046,-1.631768 -8.68843,2.917254 -7.60483,6.69405 -11.5694,8.009374 -24.14132,8.009374 -10.14013,0 -11.17444,-0.228298 -15.61808,-3.447249 -2.61733,-1.895985 -5.58967,-4.633502 -6.6052,-6.083362 -1.70051,-2.427835 -2.20932,-2.527385 -6.43968,-1.259942 -6.03132,1.807031 -10.70337,1.680138 -14.32298,-0.389016 -1.61809,-0.924988 -3.33915,-1.700559 -3.82458,-1.723496 -0.48543,-0.0228 -0.8826,3.430812 -0.8826,7.674995 0,19.134897 -4.197453,30.849367 -15.044062,41.985807 -6.67293,6.85122 -11.22943,8.42614 -31.439416,10.8667 -8.414093,1.01609 -17.416591,2.10393 -20.005549,2.41744 -5.193236,0.62881 -13.533158,3.93024 -13.533158,5.35722 0,0.49995 3.044962,-0.18093 6.766581,-1.51292 8.741575,-3.12885 20.663765,-3.27889 37.03669,-0.46612 8.696022,1.4939 15.097282,1.93333 20.59394,1.4137 4.386682,-0.41468 11.59148,-1.06894 16.010654,-1.4539 l 8.03486,-0.69993 -0.38569,3.19393 c -0.3199,2.64934 -1.54459,3.68117 -7.18246,6.05142 -11.050656,4.64589 -17.834537,9.36885 -20.010157,13.93118 -2.402771,5.03864 -1.062777,5.30271 4.112657,0.81044 3.354972,-2.91209 5.14746,-3.45121 13.570991,-4.08171 7.546239,-0.56483 11.639189,-1.61986 18.397359,-4.74235 14.09164,-6.51074 14.37982,-2.87565 0.82209,10.3699 -5.19474,5.07516 -7.47018,8.87022 -5.31837,8.87022 0.36246,0 3.08639,-1.85346 6.05322,-4.11879 2.96682,-2.26533 6.39827,-4.11879 7.62545,-4.11879 1.2272,0 4.3073,-1.05912 6.84468,-2.3536 6.59298,-3.36347 8.82509,-3.03028 11.04549,1.64884 1.0446,2.20135 1.89928,4.54991 1.89928,5.21898 0,2.35361 2.30811,7.25374 3.41671,7.25374 0.61676,0 2.15772,-2.78018 3.42436,-6.17818 z m 10.1887,-93.15554 c 2.46954,-1.883637 5.2888,-5.458157 6.26502,-7.943379 0.97623,-2.485222 2.35657,-4.502057 3.06745,-4.481856 0.71086,0.02022 3.41072,1.341382 5.99966,2.935961 5.75989,3.547612 9.11206,3.653751 14.29175,0.452522 5.23462,-3.235165 6.5028,-5.875095 5.58364,-11.623229 -0.62236,-3.891961 -0.41812,-4.746746 1.13414,-4.746746 1.10705,0 2.1907,1.343795 2.60969,3.236191 1.77452,8.014818 3.30324,11.099363 6.77886,13.677831 7.76527,5.760859 18.30811,7.149748 23.4673,3.091523 3.75939,-2.957139 6.31554,-2.991343 7.86017,-0.105179 0.66183,1.236629 3.08552,3.411684 5.38601,4.833457 10.36217,6.404176 26.87993,-3.410821 24.75975,-14.71245 -0.39357,-2.097849 -1.76435,-4.763386 -3.04614,-5.923414 -2.88325,-2.609293 -3.03546,-5.50992 -0.27103,-5.16787 5.41691,0.670293 10.37632,-5.712215 8.99061,-11.570501 -0.81809,-3.458547 -5.7855,-10.861422 -8.33735,-12.424996 -0.84471,-0.517592 -1.53587,-1.709098 -1.53587,-2.647792 0,-2.250024 3.41363,-2.203401 4.2816,0.05847 0.37257,0.970857 1.22432,1.765196 1.89273,1.765196 3.08612,0 6.8843,7.691128 7.84552,15.886756 0.67184,5.728161 0.79919,5.892475 4.80891,6.20465 5.62023,0.437566 11.76797,-3.409555 11.76797,-7.364152 0,-2.705106 0.43721,-2.959287 5.09045,-2.959287 3.77988,0 5.71133,-0.681689 7.50212,-2.647793 4.95972,-5.445347 5.34191,-7.438609 2.63351,-13.73445 -1.37441,-3.194992 -3.50913,-6.72325 -4.74373,-7.840575 -2.58936,-2.343311 -2.96534,-5.197106 -0.68471,-5.197106 3.26079,0 11.35979,12.295395 11.40272,17.310872 0.0375,4.383234 1.78777,5.560711 5.79716,3.899972 4.78963,-1.983941 8.30638,-6.547249 8.30638,-10.778371 0,-3.982231 3.32129,-4.684272 5.51825,-1.166414 2.94365,4.713526 12.91738,4.043113 19.56208,-1.31492 3.92234,-3.16284 5.32693,-10.21972 3.27286,-16.44358 -1.63277,-4.9473795 -7.81515,-11.51310357 -10.84087,-11.51310357 -3.06371,0 -2.76731,-2.58964453 0.72803,-6.36117083 3.4197,-3.6899422 3.66742,-6.4643396 1.06651,-11.9453156 -5.67334,-11.955722 -20.31342,-17.967289 -29.74821,-12.215327 -4.21175,2.567712 -7.21061,2.323813 -7.21061,-0.586442 0,-3.529644 -3.80164,-9.603897 -7.24895,-11.582387 -1.94315,-1.115199 -5.34351,-2.027635 -7.5564,-2.027635 -2.66956,0 -4.02339,-0.555956 -4.02339,-1.652234 0,-1.195048 1.65042,-1.665021 5.96451,-1.698437 6.52821,-0.05056 10.28091,2.519315 14.62414,10.014695 1.86966,3.2266 2.53283,3.579039 4.98222,2.647793 10.96006,-4.167008 29.08046,2.935354 33.26529,13.038462 2.61256,6.307282 10.53458,5.963676 14.86456,-0.644722 1.761,-2.68765 1.83382,-3.6221 0.5314,-6.82017 -3.47956,-8.543964 -3.32523,-9.001403 3.03742,-9.001403 6.50247,0 10.14946,-2.021461 12.76211,-7.073777 2.40838,-4.657258 2.20469,-9.797348 -0.60664,-15.307993 -2.97944,-5.840123 -8.2096,-8.706565 -14.15231,-7.756282 -3.85339,0.616178 -4.48157,0.377641 -5.102,-1.937379 -0.38916,-1.452039 -0.71479,-4.122668 -0.72362,-5.934704 -0.007,-1.812048 -0.76978,-4.752098 -1.69091,-6.533429 -1.83724,-3.552777 -10.60548,-12.051268 -14.68816,-14.23625 -3.34445,-1.789908 -9.31687,0.07767 -13.08902,4.09291 -3.61365,3.846548 -4.93126,3.6787 -9.18902,-1.170612 -1.96952,-2.243151 -4.86583,-4.400944 -6.43627,-4.795108 -4.21077,-1.05683 -12.3457,1.518825 -15.21322,4.816737 -2.68288,3.085596 -5.61009,3.818798 -5.61009,1.405206 0,-1.70758 5.29147,-6.930683 9.0428,-8.925973 3.27683,-1.7429 12.69216,-1.76834 16.04147,-0.0434 1.41373,0.72812 3.73073,2.379774 5.14889,3.670363 2.57795,2.346074 2.57899,2.346049 5.74847,-0.147066 1.74353,-1.371459 4.43916,-2.493567 5.99027,-2.493567 1.55112,0 3.1067,-0.74654 3.45683,-1.65897 1.43429,-3.73771 -5.90785,-13.10535 -12.85577,-16.40235 -2.50661,-1.18947 -4.32032,-3.22536 -5.30893,-5.95936 -2.10547,-5.82253 -7.47461,-9.33454 -14.42581,-9.43601 -4.64499,-0.0678 -6.23076,0.50322 -9.14341,3.29243 -1.93811,1.85594 -4.15612,4.9009 -4.9289,6.76658 -1.48564,3.58663 -4.6499,4.65401 -4.6499,1.5685 0,-2.45619 3.25937,-8.75815 6.18565,-11.95996 2.28755,-2.50294 2.30042,-2.72544 0.33061,-5.73161 -1.12711,-1.72017 -4.16946,-3.96043 -6.76084,-4.97834 -4.59822,-1.80623 -4.69639,-1.96408 -4.07999,-6.55973 0.81548,-6.07983 -0.31259,-8.00334 -6.98661,-11.91467 -5.31773,-3.11641 -5.59986,-3.15522 -9.48116,-1.30436 -5.33273,2.54299 -6.55872,2.42057 -9.74711,-0.97332 -5.34983,-5.69464 -17.88206,-5.36491 -23.87514,0.62815 -4.39932,4.39932 -6.08979,4.39691 -5.20893,-0.007 1.27478,-6.37391 -7.43267,-16.26481 -17.25229,-19.59711 -7.0737,-2.40047 -17.52034,-1.42627 -20.89518,1.94856 -3.08369,3.08369 -4.61042,2.83118 -4.61042,-0.76252 0,-7.07498 -5.43485,-12.92315 -13.73632,-14.78093 -5.47947,-1.22625 -6.92478,-1.15177 -10.47174,0.53967 -6.15347,2.93438 -7.89558,2.61388 -7.03713,-1.29465 0.59885,-2.7265 0.15329,-3.58893 -2.73585,-5.29559 -7.90823,-4.6715 -20.53052,-1.02095 -19.26998,5.57316 0.65751,3.43954 -1.04783,3.81001 -5.58882,1.21414 -3.79727,-2.17071 -6.45844,-2.16668 -13.82493,0.0209 -7.10982,2.11138 -11.51556,7.80349 -11.07726,14.31152 0.29909,4.44104 -1.91085,5.29129 -4.20496,1.61782 -2.5444,-4.07423 -12.443115,-5.80098 -20.47121,-3.57105 -8.313365,2.30919 -18.675865,13.03566 -18.675865,19.33186 0,3.62512 -1.863784,3.86961 -4.518552,0.59276 -2.122638,-2.62004 -8.800579,-4.5766 -15.772104,-4.62104 -3.429795,-0.0217 -5.099701,0.75282 -7.549508,3.50231 -3.61471,4.05691 -4.726705,4.23634 -10.169213,1.64099 -3.737904,-1.78248 -4.232684,-1.75138 -8.743125,0.54968 -7.66079,3.90824 -8.8825844,5.65745 -8.0110673,11.46913 0.7231974,4.82264 0.5859979,5.12979 -3.130959,7.00915 -4.2177168,2.13256 -9.1828871,6.28328 -9.1828871,7.67659 0,0.47793 1.8534545,3.68328 4.11878805,7.12302 2.26533725,3.43973 4.11879305,7.19287 4.11879305,8.34029 0,3.48387 -3.3934526,2.33354 -5.12813173,-1.73836 -3.38463627,-7.94491 -11.17759797,-11.70054 -18.95362097,-9.13423 -4.638822,1.53095 -10.045358,7.30309 -10.045358,10.72464 0,1.42826 -1.219945,2.74034 -3.236191,3.48062 -4.165217,1.5293 -14.415761,12.44643 -14.415761,15.35321 0,1.38884 0.825292,2.2291 2.189376,2.2291 1.204157,0 4.001672,1.22987 6.216704,2.733022 4.408152,2.991449 6.409082,2.831629 9.303737,-0.743112 2.458256,-3.03582 13.929924,-4.21136 18.562646,-1.90217 4.3994574,2.192924 8.4458154,5.913848 8.4458154,7.766574 0,2.18042 -2.9209355,1.947447 -4.8572919,-0.387419 -2.4821363,-2.992983 -8.2681925,-4.971646 -13.1983025,-4.513441 -4.679231,0.434892 -7.003065,1.792014 -10.559448,6.166729 -2.858697,3.516486 -4.505646,3.340684 -8.268612,-0.8826 -3.830849,-4.299479 -11.614488,-5.308389 -14.311526,-1.855058 -0.64972,0.831911 -2.238396,1.879268 -3.53039,2.327449 -4.385716,1.521381 -9.824464,9.837426 -11.283307,17.252583 l -1.37483,6.987676 h -5.572175 c -6.979497,0 -10.871264,2.854262 -13.586751,9.964663 -4.207094,11.016116 2.424762,20.632054 14.229379,20.632054 4.729856,0 4.7509,0.09996 1.912095,9.080406 -0.998674,3.159273 -0.807796,4.278874 1.154889,6.774021 5.289931,6.725056 10.276321,6.254723 15.375228,-1.450244 4.677251,-7.067801 14.325518,-12.05059 23.33379,-12.05059 3.935782,0 8.144714,0.529161 9.353182,1.175911 1.713364,0.916963 2.341332,0.722607 2.851698,-0.882599 1.373083,-4.318641 8.405131,-11.016612 12.4827249,-11.889692 5.3217033,-1.139466 10.5716945,-0.0943 12.1544862,2.419763 1.7021305,2.703584 0.00923,4.127512 -2.8120734,2.365486 -7.3789793,-4.608248 -15.3714337,0.787329 -19.2410317,12.989313 -0.664294,2.094711 -4.257353,2.936748 -4.257353,0.997719 0,-1.449626 -6.616022,-3.64551 -10.983633,-3.64551 -4.875972,0 -12.434035,3.847367 -17.182623,8.746671 -5.168043,5.332065 -6.43849,14.1040404 -2.552082,17.6211925 2.883968,2.6099549 3.287477,6.5824454 0.668615,6.5824454 -6.268454,0 -12.926549,10.2344251 -12.00087,18.4470181 0.717959,6.369733 2.308165,8.296141 9.688681,11.737077 7.324935,3.415023 7.545926,3.411998 12.832808,-0.175785 5.538273,-3.758373 6.584339,-3.69987 6.584339,0.368232 0,3.72405 4.562674,8.76341 9.687123,10.699193 2.701407,1.020467 3.406077,0.856863 4.412989,-1.024567 0.659035,-1.231422 1.198246,-3.36769 1.198246,-4.747268 0,-4.561 8.156118,-16.475158 11.2784576,-16.475158 2.2981964,0 2.087365,2.628504 -0.4305525,5.367888 -3.6287231,3.947885 -7.3175151,10.694277 -7.3175151,13.38293 0,6.372789 5.520299,11.845901 11.9480335,11.845901 3.94841027,0 4.52712284,0.348369 4.52712284,2.725292 0,1.940744 1.31652946,3.465229 4.57321636,5.29559 8.3207663,4.676531 13.0787393,2.985162 13.0787393,-4.649245 0,-2.417369 0.562037,-5.885977 1.248975,-7.708019 1.487444,-3.945325 7.991681,-10.961979 10.161436,-10.961979 2.497815,0 1.757021,2.912108 -1.519452,5.973052 -3.924728,3.666561 -6.360569,8.385159 -6.360569,12.321397 0,4.475844 4.251943,9.948677 7.729314,9.948677 3.477803,0 3.624146,1.601672 0.508269,5.562869 -5.331017,6.777284 -1.257954,17.387044 7.825727,20.384927 7.876827,2.599584 13.219823,1.729751 17.990684,-2.928865 4.948246,-4.831831 5.517426,-4.942016 9.487492,-1.836589 4.281266,3.348855 12.234226,3.063809 19.807108,-0.709914 6.481806,-3.230027 8.857089,-6.421386 10.231291,-13.746513 1.184163,-6.312139 4.088709,-5.80199 4.088709,0.71813 0,3.779889 0.68169,5.711351 2.647784,7.502123 6.43961,5.865333 11.43699,6.458651 17.83419,2.117385 5.39512,-3.66122 7.75316,-3.750308 7.78731,-0.294199 0.0349,3.528798 3.13064,7.366402 8.82884,10.944507 4.08958,2.567996 5.80013,2.897127 13.5958,2.61602 7.76564,-0.280004 9.49768,-0.763984 13.40772,-3.746358 z"
       id="path1" />
  </g>
</svg>
